<svg width="27" height="29" viewBox="0 0 27 29" fill="none" xmlns="http://www.w3.org/2000/svg">
<path fill-rule="evenodd" clip-rule="evenodd" d="M14.9871 0.623573L20.7169 6.28131C23.0228 8.60807 19.5638 12.0983 17.2584 9.77151L17.2352 9.74827C16.5255 9.02346 15.9464 9.2619 15.9464 10.2858V14.8129C15.9464 16.1746 14.8445 17.2769 13.486 17.2769H13.5146C12.1521 17.2769 11.0547 16.1738 11.0547 14.8129V10.2858C11.0547 9.26363 10.4773 9.02126 9.76494 9.74827L9.74183 9.77151C7.43638 12.0983 3.97739 8.60807 6.28327 6.28131L11.9347 0.632168C12.7746 -0.207127 14.1413 -0.211424 14.9871 0.62356L14.9871 0.623573ZM5.52039 24.0642H21.4796C21.8212 24.0642 22.0908 23.7904 22.0908 23.4526V20.3618C22.0908 18.9987 23.19 17.8939 24.5456 17.8939C25.9012 17.8939 27 18.9987 27 20.3618V26.5321C27 27.8952 25.9012 29 24.5456 29H2.45437C1.09876 29 0 27.8952 0 26.5321V20.3618C0 18.9987 1.09876 17.8939 2.45437 17.8939C3.80998 17.8939 4.90917 18.9987 4.90917 20.3618V23.4526C4.90917 23.7857 5.18269 24.0642 5.52042 24.0642H5.52039Z" fill="black"/>
</svg>
