<svg width="309" height="307" viewBox="0 0 309 307" fill="none" xmlns="http://www.w3.org/2000/svg">
<path d="M135.039 102.503L132.515 108.848L150.683 110.371C138.067 162.661 123.179 226.627 117.123 244.396C114.347 252.518 111.571 255.818 107.029 255.818C101.73 255.818 96.1789 249.98 90.6275 240.842C88.1041 236.781 84.8237 235.765 80.0293 238.304C73.9733 241.35 68.4219 248.711 68.4219 254.549C68.4219 263.179 78.263 269.271 86.5901 269.271C94.6648 269.271 102.74 267.494 111.571 262.418C129.992 251.503 145.637 235.765 155.73 213.682C162.796 197.944 173.394 160.884 186.011 110.371L207.711 108.848L210.235 102.503H187.777C192.067 83.9728 195.599 70.7734 199.637 58.5894C202.917 49.7053 206.702 43.8671 211.749 43.8671C216.039 43.8671 217.553 47.9284 217.553 54.0204C217.553 57.0664 216.543 61.8893 215.786 65.6968C215.029 70.0119 218.562 73.8194 226.384 73.8194C232.44 73.8194 242.786 69.7581 242.786 58.0818C242.786 45.3901 233.197 37.5212 216.796 37.5212C201.403 37.5212 188.786 43.6132 179.702 52.2436C166.833 64.4276 159.515 78.3884 152.45 102.503H135.039Z" fill="black"/>
<path fill-rule="evenodd" clip-rule="evenodd" d="M292.853 4.03675H16.147C9.45869 4.03675 4.03675 9.45869 4.03675 16.147V290.646C4.03675 297.334 9.45868 302.756 16.147 302.756H292.853C299.541 302.756 304.963 297.334 304.963 290.646V16.147C304.963 9.45868 299.541 4.03675 292.853 4.03675ZM16.147 0C7.22925 0 0 7.22925 0 16.147V290.646C0 299.564 7.22923 306.793 16.147 306.793H292.853C301.771 306.793 309 299.564 309 290.646V16.147C309 7.22926 301.771 0 292.853 0H16.147Z" fill="#D6D6D6"/>
<path d="M217.985 38.3492C217.985 39.4639 217.081 40.3676 215.966 40.3676C214.851 40.3676 213.948 39.4639 213.948 38.3492C213.948 37.2345 214.851 36.3308 215.966 36.3308C217.081 36.3308 217.985 37.2345 217.985 38.3492Z" fill="#F30606"/>
<path d="M244.223 58.5328C244.223 59.6475 243.32 60.5512 242.205 60.5512C241.09 60.5512 240.187 59.6475 240.187 58.5328C240.187 57.4181 241.09 56.5144 242.205 56.5144C243.32 56.5144 244.223 57.4181 244.223 58.5328Z" fill="#F30606"/>
<path d="M228.076 74.6798C228.076 75.7945 227.173 76.6981 226.058 76.6981C224.943 76.6981 224.04 75.7945 224.04 74.6798C224.04 73.565 224.943 72.6614 226.058 72.6614C227.173 72.6614 228.076 73.565 228.076 74.6798Z" fill="#F30606"/>
<path d="M217.985 66.6063C217.985 67.721 217.081 68.6246 215.966 68.6246C214.851 68.6246 213.948 67.721 213.948 66.6063C213.948 65.4915 214.851 64.5879 215.966 64.5879C217.081 64.5879 217.985 65.4915 217.985 66.6063Z" fill="#F30606"/>
<path d="M220.003 54.4962C220.003 55.6109 219.099 56.5145 217.984 56.5145C216.87 56.5145 215.966 55.6109 215.966 54.4962C215.966 53.3814 216.87 52.4778 217.984 52.4778C219.099 52.4778 220.003 53.3814 220.003 54.4962Z" fill="#F30606"/>
<path d="M213.948 44.4041C213.948 45.5188 213.044 46.4225 211.929 46.4225C210.815 46.4225 209.911 45.5188 209.911 44.4041C209.911 43.2894 210.815 42.3857 211.929 42.3857C213.044 42.3857 213.948 43.2894 213.948 44.4041Z" fill="#F30606"/>
<path d="M201.838 58.5328C201.838 59.6475 200.934 60.5512 199.819 60.5512C198.704 60.5512 197.801 59.6475 197.801 58.5328C197.801 57.4181 198.704 56.5144 199.819 56.5144C200.934 56.5144 201.838 57.4181 201.838 58.5328Z" fill="#F30606"/>
<path d="M181.654 52.4778C181.654 53.5926 180.75 54.4962 179.635 54.4962C178.521 54.4962 177.617 53.5926 177.617 52.4778C177.617 51.3631 178.521 50.4595 179.635 50.4595C180.75 50.4595 181.654 51.3631 181.654 52.4778Z" fill="#F30606"/>
<path d="M137.249 102.937C137.249 104.052 136.346 104.955 135.231 104.955C134.116 104.955 133.213 104.052 133.213 102.937C133.213 101.822 134.116 100.919 135.231 100.919C136.346 100.919 137.249 101.822 137.249 102.937Z" fill="#F30606"/>
<path d="M153.396 102.937C153.396 104.052 152.493 104.955 151.378 104.955C150.263 104.955 149.36 104.052 149.36 102.937C149.36 101.822 150.263 100.919 151.378 100.919C152.493 100.919 153.396 101.822 153.396 102.937Z" fill="#F30606"/>
<path d="M157.433 213.948C157.433 215.062 156.53 215.966 155.415 215.966C154.3 215.966 153.396 215.062 153.396 213.948C153.396 212.833 154.3 211.929 155.415 211.929C156.53 211.929 157.433 212.833 157.433 213.948Z" fill="#F30606"/>
<path d="M119.084 244.223C119.084 245.338 118.18 246.242 117.066 246.242C115.951 246.242 115.047 245.338 115.047 244.223C115.047 243.108 115.951 242.205 117.066 242.205C118.18 242.205 119.084 243.108 119.084 244.223Z" fill="#F30606"/>
<path d="M113.029 262.389C113.029 263.503 112.125 264.407 111.011 264.407C109.896 264.407 108.992 263.503 108.992 262.389C108.992 261.274 109.896 260.37 111.011 260.37C112.125 260.37 113.029 261.274 113.029 262.389Z" fill="#F30606"/>
<path d="M108.992 256.334C108.992 257.448 108.089 258.352 106.974 258.352C105.859 258.352 104.956 257.448 104.956 256.334C104.956 255.219 105.859 254.315 106.974 254.315C108.089 254.315 108.992 255.219 108.992 256.334Z" fill="#F30606"/>
<path d="M88.8082 268.444C88.8082 269.558 87.9046 270.462 86.7899 270.462C85.6751 270.462 84.7715 269.558 84.7715 268.444C84.7715 267.329 85.6751 266.425 86.7899 266.425C87.9046 266.425 88.8082 267.329 88.8082 268.444Z" fill="#F30606"/>
<path d="M70.6432 254.315C70.6432 255.43 69.7395 256.334 68.6248 256.334C67.5101 256.334 66.6064 255.43 66.6064 254.315C66.6064 253.201 67.5101 252.297 68.6248 252.297C69.7395 252.297 70.6432 253.201 70.6432 254.315Z" fill="#F30606"/>
<path d="M82.7535 238.168C82.7535 239.283 81.8499 240.186 80.7352 240.186C79.6205 240.186 78.7168 239.283 78.7168 238.168C78.7168 237.053 79.6205 236.15 80.7352 236.15C81.8499 236.15 82.7535 237.053 82.7535 238.168Z" fill="#F30606"/>
<path d="M92.8453 240.187C92.8453 241.301 91.9417 242.205 90.827 242.205C89.7123 242.205 88.8086 241.301 88.8086 240.187C88.8086 239.072 89.7123 238.168 90.827 238.168C91.9417 238.168 92.8453 239.072 92.8453 240.187Z" fill="#F30606"/>
<path d="M189.727 102.937C189.727 104.052 188.824 104.955 187.709 104.955C186.594 104.955 185.69 104.052 185.69 102.937C185.69 101.822 186.594 100.919 187.709 100.919C188.824 100.919 189.727 101.822 189.727 102.937Z" fill="#F30606"/>
<path d="M211.929 102.937C211.929 104.052 211.026 104.955 209.911 104.955C208.796 104.955 207.893 104.052 207.893 102.937C207.893 101.822 208.796 100.919 209.911 100.919C211.026 100.919 211.929 101.822 211.929 102.937Z" fill="#F30606"/>
<path d="M209.911 108.992C209.911 110.107 209.007 111.011 207.893 111.011C206.778 111.011 205.874 110.107 205.874 108.992C205.874 107.878 206.778 106.974 207.893 106.974C209.007 106.974 209.911 107.878 209.911 108.992Z" fill="#F30606"/>
<path d="M187.709 111.011C187.709 112.125 186.805 113.029 185.69 113.029C184.576 113.029 183.672 112.125 183.672 111.011C183.672 109.896 184.576 108.992 185.69 108.992C186.805 108.992 187.709 109.896 187.709 111.011Z" fill="#F30606"/>
<path d="M153.396 111.011C153.396 112.125 152.493 113.029 151.378 113.029C150.263 113.029 149.36 112.125 149.36 111.011C149.36 109.896 150.263 108.992 151.378 108.992C152.493 108.992 153.396 109.896 153.396 111.011Z" fill="#F30606"/>
<path d="M135.231 108.992C135.231 110.107 134.327 111.011 133.213 111.011C132.098 111.011 131.194 110.107 131.194 108.992C131.194 107.878 132.098 106.974 133.213 106.974C134.327 106.974 135.231 107.878 135.231 108.992Z" fill="#F30606"/>
<path fill-rule="evenodd" clip-rule="evenodd" d="M305 38H4V37H305V38Z" fill="#F30606" fill-opacity="0.6"/>
<path fill-rule="evenodd" clip-rule="evenodd" d="M68.6249 4.03676L68.6249 302.756L67.6157 302.756L67.6157 4.03676L68.6249 4.03676Z" fill="#F30606" fill-opacity="0.6"/>
<path fill-rule="evenodd" clip-rule="evenodd" d="M242.205 4.03676L242.205 302.756L241.196 302.756L241.196 4.03676L242.205 4.03676Z" fill="#F30606" fill-opacity="0.6"/>
<path fill-rule="evenodd" clip-rule="evenodd" d="M305 270H4V269H305V270Z" fill="#F30606" fill-opacity="0.6"/>
</svg>
