<svg width="159" height="159" viewBox="0 0 159 159" fill="none" xmlns="http://www.w3.org/2000/svg">
<path d="M64.1947 0.00269695L60.5954 19.827C57.0962 20.9267 53.7089 22.3464 50.506 24.0164L33.8673 12.5707L12.5087 33.9294L24.0137 50.5087C22.3358 53.7208 20.928 57.0884 19.8243 60.5981L0 64.1974V94.4061L19.827 98.0027C20.9333 101.522 22.3925 104.873 24.0757 108.092L12.5114 124.671L33.87 146.03L50.4494 134.584C53.6654 136.265 57.0817 137.669 60.5981 138.774L64.1974 158.598H94.4061L98.0054 138.774C101.515 137.67 104.882 136.262 108.095 134.584L124.674 146.03L146.033 124.671L134.528 108.092C136.198 104.894 137.615 101.555 138.717 98.062L158.595 94.4034V64.1947L138.712 60.5954C137.616 57.1093 136.244 53.7578 134.582 50.5654L146.027 33.9267L124.669 12.568L108.089 24.0137C104.877 22.3358 101.51 20.928 98 19.8243L94.4007 0H64.192L64.1947 0.00269695ZM79.299 45.3147C98.0685 45.3147 113.283 60.5296 113.283 79.2987C113.283 98.0678 98.0681 113.283 79.299 113.283C60.53 113.283 45.315 98.0678 45.315 79.2987C45.315 60.5296 60.53 45.3147 79.299 45.3147Z" fill="white"/>
</svg>
