<svg width="51" height="51" viewBox="0 0 51 51" fill="none" xmlns="http://www.w3.org/2000/svg">
<path d="M0 8.94737C0 4.00587 4.00587 0 8.94737 0H42.0526C46.9941 0 51 4.00587 51 8.94737V42.0526C51 46.9941 46.9941 51 42.0526 51H8.94737C4.00587 51 0 46.9941 0 42.0526V8.94737Z" fill="black"/>
<path d="M20.7048 16.7753L20.1027 18.2223L23.328 18.4777C21.3068 26.947 18.8556 37.4591 17.9525 40.0127C17.5225 41.5023 17.0065 42.1407 16.1894 42.1407C15.3723 42.1407 14.4692 41.2469 13.4801 39.7574C13.0071 39.0764 12.405 38.8211 11.502 39.2892C10.4269 39.8425 9.39478 41.1618 9.39478 42.2258C9.39478 43.7154 11.1149 44.7368 12.6631 44.7368C14.0822 44.7368 15.4583 44.4389 17.0065 43.5451C20.2317 41.7151 22.855 39.0338 24.6181 35.2886C25.8222 32.6499 27.5854 26.4788 29.5206 18.4777L33.3909 18.2223L33.95 16.7753H29.9506C30.5957 14.0515 31.1117 12.0938 31.7138 10.2637C32.2298 8.85924 32.9179 7.66758 33.778 7.66758C34.509 7.66758 34.767 8.26341 34.767 9.24228C34.767 9.71043 34.638 10.4339 34.509 11.0298C34.38 11.881 35.1111 12.5193 36.4442 12.5193C37.4763 12.5193 39.3685 11.8384 39.3685 9.79555C39.3685 7.62502 37.5623 6.26312 34.681 6.26312C32.0578 6.26312 29.9076 7.24199 28.2735 8.73157C26.0373 10.7319 24.8332 12.9875 23.7581 16.7753H20.7048Z" fill="white"/>
</svg>
